<mxfile host="app.diagrams.net" modified="2023-07-28T15:08:14.170Z" agent="Mozilla/5.0 (Windows NT 10.0; Win64; x64) AppleWebKit/537.36 (KHTML, like Gecko) Chrome/114.0.0.0 Safari/537.36" version="21.5.0" etag="aiNPlPieKWn0mM-JfqI6" type="github">
  <diagram name="Page-1" id="VjT5-7iCD0bDpicSn7lq">
    <mxGraphModel>
      <root>
        <mxCell id="0" />
        <mxCell id="1" parent="0" />
      </root>
    </mxGraphModel>
  </diagram>
</mxfile>
